<svg xmlns:svg="http://www.w3.org/2000/svg" xmlns="http://www.w3.org/2000/svg" version="1.1">
  <g transform="translate(-49.735701,-74.162247)">
    <g transform="matrix(0.26458333,0,0,0.26458333,48.148201,72.521831)" style="stroke:#000000;stroke-width:3;stroke-miterlimit:4;stroke-dasharray:none;stroke-opacity:1">
      <path d="m 182.9,551.7 c 0,0.1 0.2,0.3 0.2,0.3 0,0 175.2,-269 175.2,-357.4 C 358.3,64.5 269.5,7.9 182.9,7.7 96.3,7.9 7.5,64.5 7.5,194.6 7.5,283 182.8,552 182.8,552 Z" style="fill:#00aeef;stroke:#000000;stroke-width:3;stroke-miterlimit:4;stroke-dasharray:none;stroke-opacity:1"/>
    </g>
    <g transform="matrix(0.40647689,0,0,0.40647689,63.355619,90.623017)" style="fill: #7d3939;fill-opacity:1;stroke:#000000;stroke-width:1.95275557;stroke-miterlimit:4;stroke-dasharray:none;stroke-opacity:1;">
		<g style="fill:#fcfcfc;fill-opacity:1;stroke:#000000;stroke-width:1.95275557;stroke-miterlimit:4;stroke-dasharray:none;stroke-opacity:1;">
		  <path d="m 148.945,80.357 c 0,37.662 -30.997,68.62 -68.75,68.62 -38.051,0 -69.232,-30.782 -69.232,-68.62 0,-38.175 31.181,-69.543 69.232,-69.543 37.754,0 68.75,31.571 68.75,69.543 m 11.026,0 C 159.971,36.003 122.778,0 80.195,0 35.956,0 -0.029,36.003 -0.029,80.357 -0.029,124.18 35.956,160 80.196,160 c 44.185,0 79.775,-35.404 79.775,-79.643" style="fill:#fcfcfc;fill-opacity:1;stroke:#000000;stroke-width:1.95275557;stroke-miterlimit:4;stroke-dasharray:none;stroke-opacity:1"/>
		  <path d="m 117.433,126.129 -14.751,-16.355 c 0.341,-0.23 0.664,-0.459 0.905,-0.704 2.745,-2.19 5.279,-5.581 7.131,-10.834 2.587,-7.336 4.43,-13.901 4.932,-21.983 0.689,-9.961 -3.415,-25.444 -6.133,-32.659 l -0.948,-2.56 c -0.586,-1.613 -2.815,-5.06 -6.794,-9.179 -3.404,-3.536 -6.68,-3.804 -11.671,-3.804 H 69.845 c -4.99,0 -8.266,0.268 -11.675,3.804 -3.965,4.111 -6.209,7.565 -6.795,9.179 l -0.941,2.564 c -2.726,7.21 -6.839,22.693 -6.141,32.66 0.51,8.064 2.334,14.611 4.924,21.978 1.865,5.253 4.406,8.644 7.147,10.834 0.251,0.241 0.57,0.474 0.913,0.698 l -14.759,16.361 c -1.196,1.325 -1.196,3.495 0,4.817 1.195,1.325 3.143,1.325 4.331,0 l 5.097,-5.652 h 56.059 l 5.083,5.652 c 1.207,1.325 3.147,1.325 4.346,0 1.193,-1.322 1.193,-3.492 -10e-4,-4.817 z M 52.248,70.268 c -1.124,-2.927 1.925,-22.044 3.966,-24.811 h 47.021 c 1.953,2.378 6.021,22.148 4.352,24.811 z m 5.824,48.238 5.434,-6.035 c 2.646,0.606 5.083,0.621 6.863,0.621 h 19.207 c 1.778,0 4.218,-0.015 6.858,-0.621 l 5.447,6.035 z M 57.147,96.249 c 0,-2.691 2.188,-4.873 4.881,-4.873 2.691,0 4.888,2.182 4.888,4.873 0,2.683 -2.197,4.871 -4.888,4.871 -2.693,0 -4.881,-2.188 -4.881,-4.871 z m 40.401,4.757 c -2.694,0 -4.885,-2.193 -4.885,-4.878 0,-2.687 2.191,-4.864 4.885,-4.864 2.698,0 4.881,2.178 4.881,4.864 0.001,2.685 -2.182,4.878 -4.881,4.878 z" style="fill:#fcfcfc;fill-opacity:1;stroke:#000000;stroke-width:1.95275557;stroke-miterlimit:4;stroke-dasharray:none;stroke-opacity:1"/>
		</g>
    </g>
  </g>
</svg>