<?xml version="1.0" encoding="utf-8"?>
<!-- Generator: Adobe Illustrator 21.1.0, SVG Export Plug-In . SVG Version: 6.00 Build 0)  -->
<svg version="1.1" id="works" xmlns="http://www.w3.org/2000/svg" xmlns:xlink="http://www.w3.org/1999/xlink" x="0px" y="0px"
	 viewBox="0 0 38 32" style="enable-background:new 0 0 38 32;" xml:space="preserve">
<style type="text/css">
	.st0{fill:#EA663A;}
</style>
<path class="st0" d="M37.7,30.8c-0.4,0.8-1.2,1.2-2,1.2H2.3c-0.8,0-1.6-0.5-2-1.2c-0.4-0.8-0.4-1.7,0.1-2.4L17.1,1.1
	C17.5,0.4,18.2,0,19,0c0.8,0,1.5,0.4,1.9,1.1l16.8,27.3C38.1,29.1,38.1,30,37.7,30.8z M19,2.4L2.3,29.6h33.5L19,2.4z M8.6,26.3
	c0,0,1.3-1.5,2.1-2.7c0.3-0.5,0.5-1.4,0.6-2.2c0-0.2,0-0.3,0.1-0.5c0-0.3,0.2-0.6,0.3-0.8l0,0l0.3-0.5l-0.6-0.3
	c-0.1,0.1-0.2,0.1-0.4,0.1c0,0-0.1,0-0.1,0c-0.4-0.1-0.6-0.4-0.6-0.8c0.1-0.4,0.2-0.9,0.4-1.3c1-2.2,3.6-3.2,5.8-2.1
	c0.1,0,0.2,0.1,0.2,0.2c0.3,0.2,0.3,0.6,0.1,0.9c-0.4,0.6-0.6,1.5-0.4,2.3c0.2,0.9,0.6,1.6,1.2,2c0.3,0.2,0.4,0.5,0.2,0.8l4.6,2
	l0.8-1c0.1-0.1,0.1-0.1,0.2,0l0.5,0.4c0.3-0.3,0.7-0.3,1-0.6c0.4-0.3,0.9-0.3,1.3-0.4c0.3-0.1,0.4-0.5,0.7-0.6
	c0.2,0,0.5-0.1,0.7-0.1c0.2,0,0.4-0.2,0.6-0.2c0.4-0.1,1.1,0,1.4,0.4c0.9,1.4,4.9,7.5,4.9,7.5l-15.1,0c0-0.3,0.1-0.5,0.2-0.8
	c0.1-0.3,0.5-0.6,0.6-0.9c0.5-0.2,0.8-0.8,1.2-1c0.3-0.1,0.4-0.3,0.6-0.5l-0.6-0.6c-0.1-0.1-0.1-0.1,0-0.2l0.8-1l-4.7-2
	c-0.1,0-0.1,0-0.2,0c-0.1,0-0.3,0-0.4-0.1c-0.1-0.1-0.2-0.2-0.4-0.3l-2.1-0.9l-0.1,0.2c0.5,0.8,1.1,1.9,1.3,3c0.4,2,0,3.5,0,3.6
	c-0.1,0.4-0.4,0.7-0.8,0.7c-0.1,0-0.1,0-0.2,0c-0.4-0.1-0.7-0.6-0.6-1c0,0,0.2-1.3,0-2.9c-0.1-0.7-0.5-1.5-0.9-2.2
	c-0.1,0.9-0.3,1.9-0.8,2.6c-0.9,1.3-2.2,2.8-2.3,2.9c-0.3,0.4-0.8,0.4-1.2,0C8.3,27.2,8.3,26.6,8.6,26.3z M15.8,20.6
	c-0.3-0.5-0.5-1-0.6-1.5l-0.5,1L15.8,20.6z M12.2,19.1l1.4-2.7c-0.7,0.3-1.4,0.8-1.7,1.6c-0.1,0.3-0.2,0.6-0.3,0.9L12.2,19.1z
	 M16.6,14.4c-0.8,0-1.4-0.6-1.4-1.4s0.6-1.4,1.4-1.4c0.8,0,1.4,0.6,1.4,1.4S17.4,14.4,16.6,14.4z"/>
</svg>
