<?xml version="1.0" encoding="utf-8"?>
<!-- Generator: Adobe Illustrator 21.1.0, SVG Export Plug-In . SVG Version: 6.00 Build 0)  -->
<svg version="1.1" id="alert" xmlns="http://www.w3.org/2000/svg" xmlns:xlink="http://www.w3.org/1999/xlink" x="0px" y="0px"
	 viewBox="0 0 36 32" style="enable-background:new 0 0 36 32;" xml:space="preserve">
<style type="text/css">
	.st0{fill:#DC0052;}
</style>
<path class="st0" d="M35.1,30.5c-0.5,0.8-1.5,1.3-2.7,1.3H3c-1.2,0-2.2-0.5-2.7-1.3c-0.5-0.8-0.4-1.9,0.2-2.9L15.3,1.7
	C15.9,0.6,16.8,0,17.7,0c1,0,1.9,0.6,2.5,1.7l14.7,25.9C35.5,28.6,35.6,29.6,35.1,30.5z M33.2,28.5L18.4,2.6C18.1,2.2,17.9,2,17.7,2
	c-0.2,0-0.4,0.2-0.7,0.6L2.3,28.5c-0.2,0.4-0.3,0.8-0.2,1c0.1,0.2,0.5,0.3,1,0.3h29.3c0.5,0,0.8-0.1,0.9-0.3c0-0.1,0.1-0.1,0.1-0.2
	C33.4,29,33.3,28.8,33.2,28.5z M17.7,23c-0.8,0-1.5-0.6-1.5-1.4L15.4,10c0-0.7,0.6-1.3,1.3-1.3h1.9c0.8,0,1.4,0.6,1.3,1.3l-0.8,11.6
	C19.2,22.4,18.5,23,17.7,23z M17.7,24.5c1,0,1.9,0.8,1.9,1.8c0,1-0.8,1.8-1.9,1.8c-1,0-1.9-0.8-1.9-1.8
	C15.8,25.3,16.7,24.5,17.7,24.5z"/>
</svg>
