<?xml version="1.0" encoding="UTF-8" standalone="no"?>
<svg
    width="30"
    height="30"
    viewBox="0 0 30 30"
    version="1.1"
    xmlns:svg="http://www.w3.org/2000/svg"
    xmlns="http://www.w3.org/2000/svg">
  <path
      style="fill:#c1272d"
      d="M 26.46,21.18 17.58,6.05 A 3.08,3.08 0 0 0 15,4.33 3.08,3.08 0 0 0 12.42,6.05 L 3.54,21.18 a 3.07,3.07 0 0 0 -0.22,3.1 3.12,3.12 0 0 0 2.8,1.39 h 17.75 a 3.14,3.14 0 0 0 2.8,-1.39 3.08,3.08 0 0 0 -0.21,-3.1 z" />
  <ellipse
      style="fill:#ffffff"
      cx="15"
      cy="21.1"
      rx="1.45"
      ry="1.42" />
  <path
      style="fill:#ffffff"
      d="m 15,9.39 a 1.44,1.44 0 0 0 -1.45,1.43 v 5.75 a 1.45,1.45 0 0 0 2.89,0 V 10.82 A 1.44,1.44 0 0 0 15,9.39 Z" />
</svg>